<svg width="80" height="80" viewBox="0 0 80 80" fill="none" xmlns="http://www.w3.org/2000/svg">
<path d="M28.3332 63.3334H26.6665C13.3332 63.3334 6.6665 60 6.6665 43.3334V26.6667C6.6665 13.3334 13.3332 6.66669 26.6665 6.66669H53.3332C66.6665 6.66669 73.3332 13.3334 73.3332 26.6667V43.3334C73.3332 56.6667 66.6665 63.3334 53.3332 63.3334H51.6665C50.6332 63.3334 49.6332 63.8334 48.9998 64.6667L43.9998 71.3334C41.7998 74.2667 38.1998 74.2667 35.9998 71.3334L30.9998 64.6667C30.4665 63.9334 29.2332 63.3334 28.3332 63.3334Z" stroke="#1A6B4A" stroke-width="4" stroke-miterlimit="10" stroke-linecap="round" stroke-linejoin="round"/>
<path d="M53.3217 36.6667H53.3516" stroke="#1A6B4A" stroke-width="4" stroke-linecap="round" stroke-linejoin="round"/>
<path d="M39.9848 36.6667H40.0147" stroke="#1A6B4A" stroke-width="4" stroke-linecap="round" stroke-linejoin="round"/>
<path d="M26.6484 36.6667H26.6783" stroke="#1A6B4A" stroke-width="4" stroke-linecap="round" stroke-linejoin="round"/>
</svg>
